<svg width="790" height="733" viewBox="0 0 790 733" fill="none" xmlns="http://www.w3.org/2000/svg">
<mask id="mask0_5_2" style="mask-type:luminance" maskUnits="userSpaceOnUse" x="54" y="25" width="683" height="683">
<path d="M587.594 25H203.406C120.891 25 54 91.8915 54 174.406V558.594C54 641.109 120.891 708 203.406 708H587.594C670.109 708 737 641.109 737 558.594V174.406C737 91.8915 670.109 25 587.594 25Z" fill="white"/>
</mask>
<g mask="url(#mask0_5_2)">
<path d="M737 543.92H399.502V708H737V543.92Z" fill="#FFCC00"/>
<path d="M737 25H54V543.92H737V25Z" fill="url(#paint0_linear_5_2)"/>
<path d="M230.086 275.789H54V708H230.086V275.789Z" fill="#F082CA"/>
<mask id="mask1_5_2" style="mask-type:luminance" maskUnits="userSpaceOnUse" x="472" y="25" width="265" height="274">
<path d="M737 25H472.871V298.467H737V25Z" fill="white"/>
</mask>
<g mask="url(#mask1_5_2)">
<path d="M745.671 230.434C864.654 230.434 961.109 133.978 961.109 14.9951C961.109 -103.988 864.654 -200.443 745.671 -200.443C626.688 -200.443 530.232 -103.988 530.232 14.9951C530.232 133.978 626.688 230.434 745.671 230.434Z" stroke="white" stroke-width="86"/>
<path fill-rule="evenodd" clip-rule="evenodd" d="M745.671 186.839C840.584 186.839 917.528 109.895 917.528 14.9818C917.528 -79.9312 840.584 -156.862 745.671 -156.862C650.758 -156.862 573.814 -79.9179 573.814 14.9818C573.814 109.881 650.758 186.839 745.671 186.839ZM745.671 274.455C888.967 274.455 1005.13 158.292 1005.13 14.9951C1005.13 -128.301 888.967 -244.465 745.671 -244.465C602.374 -244.465 486.211 -128.301 486.211 14.9951C486.211 158.292 602.374 274.455 745.671 274.455Z" fill="#D2D1D6"/>
</g>
<path d="M416.577 15.6621H207.141V172.685C207.141 181.076 197.91 186.185 190.8 181.73L57.0148 97.9823L-35.377 235.449L694.112 719.232L786.504 577.763L416.564 329.695V15.6754L416.577 15.6621Z" fill="#F2F1F6"/>
<path d="M240.758 4.99023H384.828V366.5H240.758V4.99023Z" fill="url(#paint1_linear_5_2)"/>
<path d="M211.41 366.5H415.51V708H211.41V366.5Z" fill="#EEF0F6"/>
<path d="M311.459 606.617C399.131 606.617 470.203 535.545 470.203 447.873C470.203 360.201 399.131 289.129 311.459 289.129C223.787 289.129 152.715 360.201 152.715 447.873C152.715 535.545 223.787 606.617 311.459 606.617Z" fill="url(#paint2_linear_5_2)" stroke="white" stroke-width="20"/>
<path d="M327.76 353.387C322.224 338.847 300.694 338.847 295.158 353.387L234.008 520.402C230.113 531.034 243.292 539.611 251.443 531.754L307.75 477.447C309.818 475.46 313.086 475.46 315.154 477.447L371.462 531.754C379.612 539.611 392.779 531.034 388.897 520.402L327.747 353.387H327.76Z" fill="white"/>
</g>
<defs>
<linearGradient id="paint0_linear_5_2" x1="395.5" y1="25" x2="395.5" y2="543.92" gradientUnits="userSpaceOnUse">
<stop stop-color="#7FED7D"/>
<stop offset="1" stop-color="#2ED058"/>
</linearGradient>
<linearGradient id="paint1_linear_5_2" x1="312.793" y1="4.99023" x2="312.793" y2="366.5" gradientUnits="userSpaceOnUse">
<stop stop-color="#0C91FF"/>
<stop offset="1" stop-color="#0077F7"/>
</linearGradient>
<linearGradient id="paint2_linear_5_2" x1="311.459" y1="275.789" x2="311.459" y2="619.957" gradientUnits="userSpaceOnUse">
<stop stop-color="#0C91FF"/>
<stop offset="1" stop-color="#017AFF"/>
</linearGradient>
</defs>
</svg>
