<svg width="377" height="377" viewBox="0 0 377 377" fill="none" xmlns="http://www.w3.org/2000/svg">
<g clip-path="url(#clip0_3_6)">
<path d="M184.5 360C252 284.357 319.5 217.119 319.5 141.476C319.5 67.1781 259.088 7 184.5 7C109.912 7 49.5 67.1781 49.5 141.476C49.5 217.119 117 284.357 184.5 360Z" stroke="black" stroke-width="15" stroke-linejoin="round"/>
<path d="M184.5 214C186.945 214 188.731 212.212 189.201 209.672C195.877 158.112 203.117 150.303 254.081 144.657C256.714 144.375 258.5 142.399 258.5 139.953C258.5 137.507 256.714 135.625 254.081 135.249C203.117 129.603 195.877 121.794 189.201 70.234C188.731 67.6937 186.945 66 184.5 66C182.055 66 180.269 67.6937 179.893 70.234C173.217 121.794 165.883 129.603 115.013 135.249C112.286 135.625 110.5 137.507 110.5 139.953C110.5 142.399 112.286 144.375 115.013 144.657C165.788 151.337 172.84 158.206 179.893 209.672C180.269 212.212 182.055 214 184.5 214Z" fill="black"/>
<path d="M232.577 118.121C233.439 118.121 234.068 117.491 234.234 116.597C236.586 98.4389 239.138 95.6888 257.097 93.7006C258.025 93.6012 258.654 92.9054 258.654 92.044C258.654 91.1824 258.025 90.5197 257.097 90.3872C239.138 88.399 236.586 85.6489 234.234 67.4911C234.068 66.5965 233.439 66 232.577 66C231.716 66 231.086 66.5965 230.953 67.4911C228.601 85.6489 226.016 88.399 208.09 90.3872C207.13 90.5197 206.5 91.1824 206.5 92.044C206.5 92.9054 207.13 93.6012 208.09 93.7006C225.983 96.0532 228.468 98.4721 230.953 116.597C231.086 117.491 231.716 118.121 232.577 118.121Z" fill="black"/>
</g>
<defs>
<clipPath id="clip0_3_6">
<rect width="377" height="377" fill="black"/>
</clipPath>
</defs>
</svg>
